<svg width="542" height="229" viewBox="0 0 542 229" fill="none" xmlns="http://www.w3.org/2000/svg">
<path fill-rule="evenodd" clip-rule="evenodd" d="M95.0354 88.2476C100.499 88.2476 105.74 89.211 110.596 90.9658C110.194 87.7015 109.986 84.3727 109.986 80.998C109.986 36.4755 146.077 0.386932 190.597 0.386932C215.469 0.386932 237.708 11.6556 252.499 29.364C258.568 23.4888 266.839 19.8686 275.957 19.8686C294.586 19.8686 309.689 34.9722 309.689 53.6009C309.689 53.8586 309.686 54.1133 309.68 54.371C317.657 56.5524 324.477 61.5347 329.021 68.1953C341.452 41.0131 368.877 22.1205 400.722 22.1205C441.928 22.1205 475.737 53.7482 479.219 94.0491C496.756 99.8169 509.417 116.323 509.417 135.786C509.417 140.664 508.623 145.355 507.156 149.739H526.165C534.412 149.739 541.159 156.482 541.159 164.729C541.159 172.976 534.412 179.722 526.165 179.722H466.846H465.487H400.725H95.0354H15.4767C7.23003 179.722 0.486572 172.976 0.486572 164.729C0.486572 156.482 7.23003 149.739 15.4767 149.739H52.0868C50.2829 144.824 49.3011 139.52 49.3011 133.982C49.3011 108.726 69.7737 88.2476 95.0354 88.2476Z" fill="url(#paint0_linear_153_218)"/>
<path fill-rule="evenodd" clip-rule="evenodd" d="M443.149 196.685H427.88C423.213 196.685 419.397 192.868 419.397 188.205C419.397 183.539 422.275 179.722 427.88 179.722H440.719C441.704 176.624 442.238 173.322 442.238 169.899C442.238 155.565 432.917 143.413 420.007 139.167C417.442 109.496 392.549 86.2104 362.213 86.2104C338.767 86.2104 318.574 100.118 309.425 120.13C306.081 115.227 301.056 111.561 295.184 109.953C295.19 109.766 295.19 109.576 295.19 109.389C295.19 95.6689 284.072 84.5506 270.355 84.5506C263.642 84.5506 257.555 87.2136 253.085 91.5395C242.197 78.5006 225.823 70.2048 207.51 70.2048C174.732 70.2048 148.16 96.7765 148.16 129.555C148.16 132.04 148.317 134.488 148.611 136.893C145.034 135.599 141.174 134.893 137.155 134.893C118.557 134.893 103.481 149.969 103.481 168.567C103.481 172.476 104.147 176.231 105.371 179.722H177.858C182.525 179.722 186.341 183.536 186.341 188.202C186.341 192.865 182.402 196.685 177.858 196.685H154.364C145.479 196.685 138.205 203.956 138.205 212.844C138.205 221.729 145.476 229 154.364 229H443.146C452.031 229 459.302 221.729 459.302 212.844C459.302 203.956 452.034 196.685 443.149 196.685ZM102.15 196.685C111.032 196.685 118.306 203.956 118.306 212.844C118.306 221.729 111.035 229 102.15 229H101.711C92.8233 229 85.5552 221.729 85.5552 212.844C85.5552 203.959 92.8233 196.685 101.711 196.685H102.15Z" fill="url(#paint1_linear_153_218)"/>
<defs>
<linearGradient id="paint0_linear_153_218" x1="270.823" y1="0.386932" x2="270.823" y2="179.722" gradientUnits="userSpaceOnUse">
<stop stop-color="#B0E0E2"/>
<stop offset="1" stop-color="#00BEC6"/>
</linearGradient>
<linearGradient id="paint1_linear_153_218" x1="272.429" y1="70.2048" x2="272.429" y2="229" gradientUnits="userSpaceOnUse">
<stop stop-color="#F4F4F4"/>
<stop offset="1" stop-color="#7CDBDF"/>
</linearGradient>
</defs>
</svg>
