<svg xmlns="http://www.w3.org/2000/svg" width="14" height="13" viewBox="0 0 14 13" fill="none">
  <path d="M13.0642 10.1837L13.0391 0.524863L3.38029 0.499801C3.27966 0.486176 3.17727 0.494332 3.08007 0.523715C2.98287 0.553099 2.89311 0.603025 2.81688 0.670113C2.74064 0.737201 2.67972 0.819884 2.63822 0.912566C2.59672 1.00525 2.57562 1.10576 2.57634 1.20731C2.57707 1.30886 2.5996 1.40906 2.64242 1.50114C2.68524 1.59322 2.74734 1.67503 2.82453 1.74102C2.90171 1.80701 2.99217 1.85565 3.08978 1.88364C3.1874 1.91163 3.28989 1.91832 3.39031 1.90326L10.6282 1.93334L1.03951 11.522C0.906577 11.6549 0.831895 11.8352 0.831894 12.0232C0.831894 12.2112 0.906577 12.3915 1.03951 12.5245C1.17245 12.6574 1.35275 12.7321 1.54075 12.7321C1.72875 12.7321 1.90905 12.6574 2.04199 12.5245L11.6306 2.93581L11.6607 10.1737C11.6614 10.3618 11.7367 10.5419 11.8702 10.6744C12.0037 10.807 12.1844 10.8811 12.3725 10.8804C12.5606 10.8797 12.7407 10.8044 12.8733 10.6709C13.0058 10.5374 13.0799 10.3568 13.0792 10.1687L13.0642 10.1837Z" fill="#EDF2F4"/>
</svg>