<svg xmlns="http://www.w3.org/2000/svg" width="28" height="28" viewBox="0 0 28 28" fill="none">
  <path d="M8.09666 5.83334C8.09635 6.45218 7.85022 7.04555 7.41242 7.48291C6.97461 7.92028 6.381 8.16582 5.76216 8.16551C5.14332 8.1652 4.54995 7.91907 4.11259 7.48126C3.67522 7.04346 3.42968 6.44985 3.42999 5.83101C3.4303 5.21217 3.67643 4.6188 4.11424 4.18143C4.55204 3.74407 5.14565 3.49853 5.76449 3.49884C6.38333 3.49915 6.9767 3.74528 7.41407 4.18308C7.85143 4.62089 8.09697 5.2145 8.09666 5.83334ZM8.16666 9.89334H3.49999V24.5H8.16666V9.89334ZM15.54 9.89334H10.8967V24.5H15.4933V16.835C15.4933 12.565 21.0583 12.1683 21.0583 16.835V24.5H25.6667V15.2483C25.6667 8.05001 17.43 8.31834 15.4933 11.8533L15.54 9.89334Z" fill="#F4F4F4"/>
</svg>